<svg width="32" height="32" viewBox="0 0 32 32" fill="none" xmlns="http://www.w3.org/2000/svg">
  <rect width="32" height="32" rx="8" fill="#8A6FE8"/>
  <path fill-rule="evenodd" clip-rule="evenodd" d="M16 8C12.686 8 10 10.686 10 14V23C10 23.5523 10.4477 24 11 24H21C21.5523 24 22 23.5523 22 23V14C22 10.686 19.314 8 16 8ZM9.5 14C9.5 10.4101 12.4102 7.5 16 7.5C19.5899 7.5 22.5 10.4101 22.5 14V23.5H9.5V14Z" fill="white"/>
  <path d="M13 12C13 11.4477 13.4477 11 14 11H18C18.5523 11 19 11.4477 19 12V13C19 13.5523 18.5523 14 18 14H14C13.4477 14 13 13.5523 13 13V12Z" fill="white"/>
  <path d="M11 18C11 17.4477 11.4477 17 12 17H20C20.5523 17 21 17.4477 21 18C21 18.5523 20.5523 19 20 19H12C11.4477 19 11 18.5523 11 18Z" fill="white"/>
  <path d="M11 21C11 20.4477 11.4477 20 12 20H20C20.5523 20 21 20.4477 21 21C21 21.5523 20.5523 22 20 22H12C11.4477 22 11 21.5523 11 21Z" fill="white"/>
</svg>